<?xml version="1.0" encoding="iso-8859-1"?>
<!-- Generator: Adobe Illustrator 25.4.1, SVG Export Plug-In . SVG Version: 6.00 Build 0)  -->
<svg version="1.1" xmlns="http://www.w3.org/2000/svg" xmlns:xlink="http://www.w3.org/1999/xlink" x="0px" y="0px"
	 viewBox="0 0 1046.29 675" style="enable-background:new 0 0 1046.29 675;" xml:space="preserve">
<g id="Layer_1" style="display:none;">
	
		<image style="display:inline;overflow:visible;opacity:0.2;" width="944" height="622" xlink:href="Screen Shot 2021-09-04 at 10.48.04 PM.png"  transform="matrix(1.1479 0 0 1.1479 -21.71 -22)">
	</image>
</g>
<g id="Layer_2" style="display:none;">
	<g style="display:inline;">
		<path style="fill:#939293;" d="M1024.367,4c7.677,0,13.923,6.246,13.923,13.923v639.153c0,7.677-6.246,13.923-13.923,13.923
			H22.213c-7.677,0-13.923-6.246-13.923-13.923V17.923C8.29,10.246,14.536,4,22.213,4H1024.367 M1024.367,0H22.213
			C12.315,0,4.29,8.025,4.29,17.923v639.153c0,9.899,8.025,17.923,17.923,17.923h1002.153c9.899,0,17.923-8.025,17.923-17.923
			V17.923C1042.29,8.025,1034.265,0,1024.367,0L1024.367,0z"/>
	</g>
	<g style="display:inline;">
		<path style="fill:#939293;" d="M162.749,140.368v391.847H8.29V140.368H162.749 M166.749,136.368H4.29v399.847h162.459V136.368
			L166.749,136.368z"/>
	</g>
	<g style="display:inline;">
		<path style="fill:#939293;" d="M57.096,249.916v172.75H8.29v-172.75H57.096 M61.096,245.916H4.29v180.75h56.806V245.916
			L61.096,245.916z"/>
	</g>
	<path style="display:inline;fill:#939293;" d="M166.75,262.59v4.91c21.77,15.65,35.97,41.2,35.97,70s-14.2,54.35-35.97,70v4.91
		c24.1-16.18,39.97-43.69,39.97-74.91S190.85,278.77,166.75,262.59z"/>
	<rect x="-0.004" y="301.082" style="display:inline;fill:#939293;" width="12.389" height="71.161"/>
	
		<line style="display:inline;fill:#939293;stroke:#939293;stroke-width:4;stroke-miterlimit:10;" x1="523.29" y1="0" x2="523.29" y2="675"/>
	
		<circle style="display:inline;fill:none;stroke:#939293;stroke-width:4;stroke-miterlimit:10;" cx="523.29" cy="335.184" r="89.268"/>
	<g style="display:inline;">
		<g>
			<path style="fill:#939293;" d="M883.538,140.077l154.459,0v391.847H883.538V140.077 M879.538,136.077v399.847h162.459V136.077
				L879.538,136.077L879.538,136.077z"/>
		</g>
		<g>
			<path style="fill:#939293;" d="M1037.996,249.625v172.75H989.19v-172.75H1037.996 M1041.996,245.625H985.19v180.75h56.806
				V245.625L1041.996,245.625z"/>
		</g>
		<path style="fill:#939293;" d="M839.566,337.209c0,31.22,15.87,58.73,39.97,74.91v-4.91c-21.77-15.65-35.97-41.2-35.97-70
			s14.2-54.35,35.97-70v-4.91C855.436,278.479,839.566,305.989,839.566,337.209z"/>
		
			<rect x="1033.901" y="300.791" transform="matrix(-1 -4.478119e-11 4.478119e-11 -1 2080.1909 672.7423)" style="fill:#939293;" width="12.389" height="71.161"/>
	</g>
	<circle style="display:inline;fill:#939293;" cx="930.993" cy="336.58" r="4.947"/>
	<circle style="display:inline;fill:#939293;" cx="112.719" cy="336.291" r="4.947"/>
</g>
<g id="ooutline">
	<path style="fill:#939293;" d="M1042.29,300.79V17.92c0-9.9-8.02-17.92-17.92-17.92H22.21C12.31,0,4.29,8.02,4.29,17.92v283.16H0
		v71.16h4.29v284.84c0,9.9,8.02,17.92,17.92,17.92h1002.16c9.9,0,17.92-8.02,17.92-17.92V371.95h4v-71.16H1042.29z M525.29,247.95
		c47.2,1.06,85.27,39.78,85.27,87.23s-38.07,86.18-85.27,87.24V247.95z M8.29,372.24h4.1v-71.16h-4.1v-51.16H57.1v172.75H8.29
		V372.24z M8.29,426.67H61.1V245.92H8.29V140.37h154.46v391.84H8.29V426.67z M521.29,422.42c-47.2-1.06-85.27-39.79-85.27-87.24
		s38.07-86.17,85.27-87.23V422.42z M521.29,243.95c-49.41,1.06-89.27,41.58-89.27,91.23c0,49.66,39.86,90.18,89.27,91.24V671H22.21
		c-7.67,0-13.92-6.25-13.92-13.92V536.21h158.46v-123.8c24.1-16.18,39.97-43.69,39.97-74.91s-15.87-58.73-39.97-74.91V136.37H8.29
		V17.92C8.29,10.25,14.54,4,22.21,4h499.08V243.95z M166.75,407.5v-140c21.77,15.65,35.97,41.2,35.97,70S188.52,391.85,166.75,407.5
		z M1038.29,136.08H879.54V262.3c-24.1,16.18-39.97,43.69-39.97,74.91c0,31.22,15.87,58.73,39.97,74.91v123.8h158.75v121.16
		c0,7.67-6.25,13.92-13.92,13.92H525.29V426.42c49.41-1.06,89.27-41.58,89.27-91.24c0-49.65-39.86-90.17-89.27-91.23V4h499.08
		c7.67,0,13.92,6.25,13.92,13.92V136.08z M1038,371.95v50.43h-48.81V249.62H1038v51.17h-4.1v71.16H1038z M985.19,245.62v180.76H1038
		v105.54H883.54V140.08H1038v105.54H985.19z M879.54,267.21v140c-21.77-15.65-35.97-41.2-35.97-70
		C843.57,308.41,857.77,282.86,879.54,267.21z"/>
	<circle style="fill:#939293;" cx="930.993" cy="336.58" r="4.947"/>
	<circle style="fill:#939293;" cx="112.719" cy="336.291" r="4.947"/>
</g>
</svg>
