<?xml version="1.0" encoding="UTF-8" standalone="no"?>
<!-- Generator: Adobe Illustrator 12.0.1, SVG Export Plug-In . SVG Version: 6.00 Build 51448)  -->
<svg
   xmlns:dc="http://purl.org/dc/elements/1.1/"
   xmlns:cc="http://creativecommons.org/ns#"
   xmlns:rdf="http://www.w3.org/1999/02/22-rdf-syntax-ns#"
   xmlns:svg="http://www.w3.org/2000/svg"
   xmlns="http://www.w3.org/2000/svg"
   xmlns:xlink="http://www.w3.org/1999/xlink"
   xmlns:sodipodi="http://sodipodi.sourceforge.net/DTD/sodipodi-0.dtd"
   xmlns:inkscape="http://www.inkscape.org/namespaces/inkscape"
   version="1.1"
   id="Calque_1"
   width="60"
   height="60"
   viewBox="0 0 439.505 439.509"
   overflow="visible"
   enable-background="new 0 0 439.505 439.509"
   xml:space="preserve"
   sodipodi:version="0.32"
   inkscape:version="0.46"
   sodipodi:docname="adidas_ball-l2.svg"
   inkscape:output_extension="org.inkscape.output.svg.inkscape"><metadata
   id="metadata138"><rdf:RDF><cc:Work
       rdf:about=""><dc:format>image/svg+xml</dc:format><dc:type
         rdf:resource="http://purl.org/dc/dcmitype/StillImage" /></cc:Work></rdf:RDF></metadata><defs
   id="defs136"><linearGradient
     id="linearGradient3230"><stop
       style="stop-color:#e2d562;stop-opacity:1;"
       offset="0"
       id="stop3232" /><stop
       style="stop-color:#b7aa33;stop-opacity:1;"
       offset="1"
       id="stop3234" /></linearGradient><linearGradient
     id="linearGradient3517"><stop
       style="stop-color:#ffffff;stop-opacity:0;"
       offset="0"
       id="stop3519" /><stop
       style="stop-color:#c7c7c7;stop-opacity:1;"
       offset="1"
       id="stop3521" /></linearGradient><linearGradient
     id="linearGradient3499"><stop
       style="stop-color:#ffffff;stop-opacity:0.39024389;"
       offset="0"
       id="stop3501" /><stop
       style="stop-color:#ffffff;stop-opacity:0;"
       offset="1"
       id="stop3503" /></linearGradient><inkscape:perspective
     sodipodi:type="inkscape:persp3d"
     inkscape:vp_x="0 : 219.7545 : 1"
     inkscape:vp_y="0 : 1000 : 0"
     inkscape:vp_z="439.505 : 219.7545 : 1"
     inkscape:persp3d-origin="219.7525 : 146.503 : 1"
     id="perspective140" /><radialGradient
     inkscape:collect="always"
     xlink:href="#linearGradient3499"
     id="radialGradient3505"
     cx="102.41985"
     cy="138.95293"
     fx="102.41985"
     fy="138.95293"
     r="219.502"
     gradientUnits="userSpaceOnUse"
     gradientTransform="matrix(7.4492737e-2,0.8114036,-0.9958122,9.1422782e-2,262.83257,38.366954)" /><radialGradient
     inkscape:collect="always"
     xlink:href="#linearGradient3517"
     id="radialGradient3523"
     cx="191.21893"
     cy="203.02171"
     fx="191.21893"
     fy="203.02171"
     r="219.502"
     gradientUnits="userSpaceOnUse"
     gradientTransform="matrix(0.6401584,-0.6914215,0.6243852,0.5780922,-57.955205,217.86932)" /><filter
     inkscape:collect="always"
     id="filter3541"><feBlend
       inkscape:collect="always"
       mode="screen"
       in2="BackgroundImage"
       id="feBlend3543" /></filter><radialGradient
     inkscape:collect="always"
     xlink:href="#linearGradient3230"
     id="radialGradient3236"
     cx="118.76773"
     cy="151.49413"
     fx="118.76773"
     fy="151.49413"
     r="216.2585"
     gradientTransform="matrix(-3.5314986e-2,0.8367168,-1.0117507,-4.2702575e-2,291.55677,41.642727)"
     gradientUnits="userSpaceOnUse" /></defs><sodipodi:namedview
   inkscape:window-height="968"
   inkscape:window-width="1280"
   inkscape:pageshadow="2"
   inkscape:pageopacity="0.0"
   guidetolerance="10.0"
   gridtolerance="10.0"
   objecttolerance="10.0"
   borderopacity="1.0"
   bordercolor="#666666"
   pagecolor="#ffffff"
   id="base"
   showgrid="false"
   inkscape:zoom="1.4203044"
   inkscape:cx="188.98889"
   inkscape:cy="226.29674"
   inkscape:window-x="-4"
   inkscape:window-y="-4"
   inkscape:current-layer="layer1" />
<g
   inkscape:groupmode="layer"
   id="layer2"
   inkscape:label="Fond"
   style="display:inline"
   sodipodi:insensitive="true"><circle
     cx="219.752"
     cy="219.748"
     r="219.502"
     id="circle3"
     sodipodi:cx="219.752"
     sodipodi:cy="219.748"
     sodipodi:rx="219.502"
     sodipodi:ry="219.502"
     style="fill:#ffffff" /></g><g
   inkscape:groupmode="layer"
   id="layer4"
   inkscape:label="Ombre final"
   style="display:inline"
   sodipodi:insensitive="true"><circle
     cx="219.752"
     cy="219.748"
     r="219.502"
     id="circle3515"
     sodipodi:cx="219.752"
     sodipodi:cy="219.748"
     sodipodi:rx="219.502"
     sodipodi:ry="219.502"
     style="opacity:1;fill:url(#radialGradient3523);fill-opacity:1;display:inline;filter:url(#filter3541)" /></g>



<g
   inkscape:groupmode="layer"
   id="layer1"
   inkscape:label="Tracé"
   style="display:inline"
   sodipodi:insensitive="true"><path
     d="M 366.072,77.794 C 382.673,89.091 401.835,104.238 398.979,93.861 C 398.236,92.807 397.481,91.761 396.722,90.722 C 396.772,91.308 396.817,91.666 396.867,91.739 C 397.732,93.034 395.096,92.447 395.096,92.447 C 390.656,90.22 382.592,84.58 376.824,80.534 L 368.258,74.583 C 361.175,69.761 354.302,64.715 347.029,59.373 C 333.907,49.735 320.338,39.767 303.562,29.668 C 278.958,14.855 259.636,6.741 245.785,2.287 C 237.415,1.296 228.904,0.767 220.27,0.747 C 224.226,0.881 251.6,2.917 301.558,32.995 C 327.474,48.599 346.158,64.241 366.072,77.794 z M 22.627,149.153 C 16.513,149.153 11.558,156.15 8.258,162.703 C 7.912,163.99 7.603,165.291 7.279,166.586 C 7.897,166.586 8.258,166.586 8.258,166.586 C 9.725,166.586 11.068,165.759 11.727,164.449 C 15.379,157.196 19.352,153.036 22.627,153.036 C 26.02,153.036 32.18,158.532 37.69,170.598 C 43.898,184.189 47.316,201.645 47.316,219.751 C 47.316,261.268 30.168,286.474 22.626,286.474 C 19.352,286.474 15.378,282.314 11.726,275.06 C 11.066,273.749 9.724,272.923 8.257,272.923 C 8.257,272.923 7.897,272.923 7.278,272.923 C 7.602,274.218 7.911,275.52 8.257,276.807 C 11.557,283.358 16.512,290.356 22.626,290.356 C 34.119,290.356 51.199,260.999 51.199,219.752 C 51.201,178.506 34.121,149.153 22.627,149.153 z M 430.431,260.779 C 427.51,259.948 424.396,260.991 421.177,263.878 C 413.043,271.18 387.118,290.124 365.117,290.124 C 331.096,290.124 305.441,259.872 305.441,219.752 C 305.441,179.636 331.096,149.387 365.117,149.387 C 387.118,149.387 413.043,168.329 421.173,175.628 C 424.396,178.517 427.507,179.561 430.431,178.732 C 431.981,178.29 433.289,177.331 434.381,175.94 C 433.972,173.927 433.536,171.926 433.073,169.934 L 433.073,169.934 C 431.883,173.968 429.311,177.709 423.766,172.739 C 414.198,164.152 387.939,145.504 365.117,145.504 C 329.541,145.504 301.556,176.91 301.556,219.753 C 301.556,262.598 329.54,294.009 365.117,294.009 C 387.939,294.009 414.198,275.361 423.766,266.772 C 429.311,261.801 431.882,265.543 433.073,269.579 L 433.077,269.579 C 433.54,267.586 433.975,265.585 434.381,263.571 C 433.293,262.178 431.98,261.219 430.431,260.779 z M 251.065,352.745 C 251.065,303.405 213.355,274.014 213.355,219.752 C 213.355,165.496 251.065,136.103 251.065,86.762 C 251.065,70.711 232.044,32.422 189.194,32.422 C 146.346,32.422 104.238,69.524 104.238,113.511 C 104.238,153.936 119.436,162.257 119.436,219.752 C 119.436,277.249 104.238,285.571 104.238,325.996 C 104.238,369.982 146.346,407.087 189.194,407.087 C 232.045,407.086 251.065,368.792 251.065,352.745 z M 189.194,403.203 C 146.764,403.203 108.122,366.403 108.122,325.996 C 108.122,308.071 111.119,296.925 114.589,284.014 C 118.681,268.791 123.32,251.539 123.32,219.752 C 123.32,187.966 118.681,170.713 114.589,155.49 C 111.118,142.582 108.122,131.434 108.122,113.511 C 108.122,73.104 146.764,36.306 189.194,36.306 C 229.932,36.306 247.181,72.402 247.181,86.763 C 247.181,109.989 238.526,128.615 229.359,148.333 C 219.583,169.369 209.472,191.123 209.472,219.753 C 209.472,248.387 219.583,270.142 229.361,291.181 C 238.526,310.897 247.181,329.521 247.181,352.746 C 247.182,367.105 229.933,403.203 189.194,403.203 z M 366.072,361.693 C 346.158,375.245 327.473,390.884 301.556,406.492 C 251.598,436.567 224.224,438.603 220.268,438.736 C 228.902,438.717 237.413,438.185 245.783,437.196 C 259.635,432.74 278.956,424.629 303.56,409.817 C 320.335,399.718 333.905,389.752 347.027,380.112 C 354.3,374.769 361.173,369.723 368.256,364.901 L 376.822,358.951 C 382.591,354.904 390.654,349.264 395.094,347.039 C 395.094,347.039 397.731,346.45 396.865,347.746 C 396.815,347.82 396.77,348.177 396.72,348.765 C 397.479,347.724 398.234,346.678 398.977,345.625 C 401.835,335.249 382.673,350.394 366.072,361.693 z M 357.42,49.423 C 356.107,48.361 354.783,47.315 353.444,46.284 C 347.671,43.704 336.08,37.298 320.639,28.676 C 303.306,18.998 283.922,11.436 268.44,6.181 C 263.292,5.012 258.078,4.02 252.798,3.221 C 268.849,8.022 296.184,17.247 319.69,30.371 C 348.134,46.253 354.821,49.582 357.42,49.423 z M 15.121,219.751 L 15.121,219.731 C 15.107,177.122 9.949,171.055 6.304,169.797 C 6.146,170.469 5.99,171.143 5.839,171.817 C 8.412,173.315 13.167,180.219 13.18,219.741 C 13.167,259.264 8.412,266.17 5.839,267.667 C 5.99,268.34 6.146,269.015 6.304,269.687 C 9.949,268.43 15.107,262.363 15.121,219.751 z M 319.69,409.112 C 296.184,422.236 268.849,431.463 252.798,436.263 C 258.077,435.462 263.291,434.469 268.44,433.301 C 283.922,428.048 303.306,420.484 320.639,410.805 C 336.079,402.187 347.67,395.781 353.444,393.201 C 354.783,392.17 356.106,391.124 357.42,390.061 C 354.821,389.903 348.134,393.232 319.69,409.112 z M 180.603,219.751 C 180.603,203.697 189.895,188.331 199.732,172.063 C 210.068,154.97 220.756,137.294 220.756,117.793 C 220.756,91.53 205.894,77.067 178.907,77.067 C 178.331,77.067 121.32,77.699 121.32,132.406 C 121.32,150.357 128.094,163.273 134.647,175.763 C 141.238,188.33 148.055,201.326 148.055,219.75 C 148.055,238.178 141.238,251.174 134.647,263.741 C 128.095,276.23 121.32,289.145 121.32,307.097 C 121.32,361.803 178.332,362.438 178.907,362.438 C 205.894,362.438 220.756,347.974 220.756,321.71 C 220.756,302.207 210.068,284.534 199.732,267.439 C 189.894,251.175 180.603,235.81 180.603,219.751 z M 178.907,360.497 C 168.791,360.497 123.262,354.876 123.262,307.1 C 123.262,271.691 149.996,257.074 149.996,219.752 C 149.996,182.434 123.262,167.818 123.262,132.408 C 123.262,84.631 168.791,79.01 178.907,79.01 C 189.024,79.01 218.815,80.697 218.815,117.794 C 218.815,154.891 178.661,185.807 178.661,219.752 C 178.661,253.702 218.815,284.615 218.815,321.713 C 218.815,358.809 189.023,360.497 178.907,360.497 z M 431.208,236.553 C 429.175,238.782 427.039,241.676 424.775,244.74 C 417.641,254.399 408.764,266.418 396.671,266.418 C 379.331,266.418 365.28,247.232 365.262,219.752 L 365.235,219.752 L 365.235,219.732 L 365.262,219.732 C 365.281,192.253 379.331,173.068 396.671,173.068 C 408.765,173.068 417.642,185.086 424.775,194.745 C 427.039,197.809 429.174,200.703 431.208,202.933 C 433.896,205.887 436.357,206.501 438.356,206.398 C 438.314,205.751 438.276,205.103 438.231,204.458 C 436.642,204.538 434.805,204.004 432.644,201.629 C 430.68,199.469 428.571,196.615 426.337,193.593 C 418.941,183.582 409.741,171.127 396.67,171.127 C 378.302,171.127 363.526,190.868 363.33,219.349 L 363.322,219.349 L 363.322,220.108 L 363.326,220.108 C 363.518,248.605 378.294,268.36 396.67,268.36 C 409.741,268.36 418.941,255.903 426.337,245.894 C 428.57,242.87 430.68,240.017 432.644,237.857 C 434.805,235.481 436.642,234.948 438.231,235.028 C 438.276,234.382 438.314,233.735 438.356,233.089 C 436.357,232.984 433.896,233.598 431.208,236.553 z"
     id="path2597"
     style="fill:url(#radialGradient3236);fill-opacity:1" /><path
     d="M 439.171,213.737 C 439.152,213.123 439.122,212.508 439.099,211.894 C 439.05,210.502 438.997,209.11 438.922,207.726 C 438.884,206.998 438.83,206.27 438.785,205.54 C 438.701,204.271 438.614,203.006 438.512,201.746 C 438.448,200.957 438.376,200.168 438.304,199.379 C 438.194,198.198 438.075,197.017 437.946,195.839 C 437.857,194.984 437.758,194.127 437.655,193.274 C 437.526,192.205 437.386,191.139 437.242,190.073 C 437.113,189.118 436.979,188.161 436.841,187.208 C 436.707,186.322 436.564,185.442 436.422,184.559 C 436.24,183.44 436.064,182.32 435.865,181.202 C 435.778,180.727 435.682,180.254 435.596,179.776 C 434.981,176.441 434.313,173.119 433.544,169.823 C 433.54,169.798 433.517,169.783 433.506,169.76 C 427.039,142.108 415.324,116.453 399.485,93.898 C 399.469,93.839 399.465,93.79 399.446,93.729 C 399.431,93.675 399.408,93.625 399.374,93.578 C 382.394,69.446 360.958,49.341 336.625,34.037 C 335.329,33.219 334.024,32.411 332.71,31.618 C 332.425,31.447 332.139,31.28 331.852,31.109 C 304.537,14.817 273.407,4.291 240.146,1.21 C 240.022,1.199 239.897,1.189 239.769,1.177 C 237.89,1.007 236.004,0.86 234.112,0.737 C 233.672,0.708 233.231,0.68 232.789,0.654 C 231.171,0.558 229.549,0.483 227.923,0.423 C 227.375,0.402 226.826,0.377 226.276,0.36 C 224.512,0.309 222.742,0.28 220.97,0.271 C 220.682,0.27 220.397,0.258 220.11,0.257 C 220.105,0.257 220.094,0.256 220.09,0.256 L 220.079,0.256 C 220.076,0.256 220.075,0.259 220.073,0.259 C 219.913,0.255 219.75,0.251 219.75,0.251 L 219.72,0.256 C 118.538,0.271 33.148,69.107 7.868,162.403 C 7.854,162.429 7.839,162.458 7.826,162.485 C 7.732,162.833 7.654,163.185 7.562,163.534 C 7.114,165.225 6.686,166.925 6.276,168.633 C 6.188,169.008 6.089,169.38 6.002,169.755 C 5.493,171.936 5.017,174.129 4.574,176.334 C 4.51,176.653 4.452,176.975 4.389,177.294 C 4.018,179.176 3.673,181.069 3.35,182.969 C 3.269,183.456 3.187,183.944 3.107,184.432 C 2.794,186.362 2.504,188.296 2.242,190.242 C 2.203,190.522 2.161,190.802 2.124,191.083 C 1.827,193.344 1.563,195.613 1.337,197.895 C 1.311,198.153 1.294,198.411 1.268,198.668 C 1.085,200.586 0.928,202.511 0.794,204.443 C 0.749,205.075 0.711,205.706 0.673,206.339 C 0.574,207.97 0.494,209.604 0.432,211.242 C 0.407,211.876 0.378,212.509 0.359,213.144 C 0.294,215.334 0.252,217.53 0.251,219.736 L 0.251,219.758 C 0.251,221.971 0.294,224.177 0.359,226.373 C 0.378,226.999 0.406,227.621 0.431,228.245 C 0.493,229.896 0.574,231.543 0.673,233.184 C 0.711,233.807 0.749,234.433 0.792,235.057 C 0.924,236.967 1.08,238.873 1.261,240.772 C 1.289,241.059 1.309,241.344 1.338,241.629 C 1.562,243.882 1.821,246.123 2.113,248.355 C 2.161,248.724 2.218,249.096 2.268,249.464 C 2.515,251.275 2.783,253.078 3.073,254.876 C 3.174,255.499 3.278,256.121 3.383,256.746 C 3.661,258.372 3.958,259.993 4.271,261.608 C 4.385,262.199 4.492,262.79 4.612,263.379 C 5.023,265.415 5.46,267.444 5.929,269.462 C 6.114,270.26 6.319,271.054 6.513,271.85 C 6.809,273.066 7.112,274.283 7.429,275.491 C 7.554,275.97 7.662,276.454 7.791,276.933 C 7.8,276.963 7.812,276.994 7.827,277.024 C 7.84,277.049 7.853,277.074 7.866,277.098 C 33.145,370.411 118.554,439.258 219.756,439.258 C 265.518,439.258 308.051,425.175 343.259,401.122 C 343.469,400.979 343.676,400.831 343.889,400.687 C 345.187,399.796 346.475,398.888 347.75,397.971 C 348.547,397.398 349.335,396.822 350.124,396.238 C 350.711,395.802 351.3,395.362 351.887,394.918 C 369.954,381.307 386.042,364.855 399.375,345.904 C 399.409,345.86 399.433,345.81 399.447,345.755 C 399.459,345.711 399.463,345.673 399.474,345.632 C 415.326,323.069 427.044,297.404 433.511,269.739 C 433.518,269.718 433.541,269.708 433.545,269.685 C 434.287,266.491 434.94,263.272 435.539,260.041 C 435.65,259.442 435.767,258.846 435.873,258.246 C 436.06,257.197 436.229,256.144 436.396,255.095 C 436.551,254.145 436.707,253.196 436.848,252.243 C 436.983,251.337 437.109,250.428 437.23,249.519 C 437.382,248.409 437.526,247.293 437.662,246.176 C 437.762,245.36 437.853,244.539 437.942,243.723 C 438.076,242.507 438.198,241.285 438.308,240.066 C 438.379,239.309 438.448,238.554 438.508,237.797 C 438.614,236.502 438.705,235.203 438.789,233.901 C 438.834,233.201 438.884,232.503 438.922,231.8 C 438.997,230.386 439.054,228.964 439.103,227.539 C 439.123,226.952 439.153,226.365 439.171,225.779 C 439.225,223.776 439.255,221.767 439.255,219.754 L 439.255,219.709 C 439.255,217.715 439.225,215.725 439.171,213.737 z M 399.696,95.909 C 414.953,118.005 426.255,143.027 432.553,169.956 C 432.069,171.548 431.243,173.414 429.918,174.22 L 429.967,174.001 C 424.237,146.688 413.508,121.048 398.073,97.764 C 398.413,97.716 398.72,97.629 398.963,97.457 C 399.419,97.135 399.639,96.6 399.696,95.909 z M 344.896,40.712 C 345.255,40.963 345.621,41.207 345.975,41.46 C 346.541,41.86 347.099,42.277 347.66,42.684 C 353.206,46.699 358.556,50.968 363.695,55.474 C 359.793,54.254 350.387,49.087 330.994,38.213 C 304.642,23.44 283.736,12.523 250.466,3.501 C 284.58,8.358 316.923,21.199 344.896,40.712 z M 248.615,3.229 C 262.225,7.853 280.584,15.836 303.56,29.669 C 320.335,39.768 333.905,49.735 347.027,59.374 C 348.859,60.717 350.66,62.041 352.447,63.348 C 370.059,75.461 392.547,89.62 392.919,86.619 C 394.857,89.134 396.745,91.69 398.574,94.29 C 398.683,94.737 398.779,95.207 398.779,95.625 C 398.779,96.083 398.679,96.468 398.406,96.662 C 396.158,98.246 384.849,90.313 374.875,83.316 L 366.347,77.392 C 359.209,72.536 352.315,67.473 345.017,62.112 C 331.955,52.518 318.448,42.598 301.808,32.579 C 266.385,11.253 242.23,4.005 229.752,1.535 C 236.087,1.827 242.38,2.395 248.615,3.229 z M 215.824,1.721 C 216.085,1.656 216.347,1.625 216.608,1.571 C 217,1.491 217.39,1.398 217.781,1.347 C 218.406,1.268 219.033,1.23 219.659,1.226 C 219.692,1.226 219.722,1.225 219.754,1.225 C 219.912,1.225 220.07,1.231 220.229,1.231 L 220.267,1.232 C 224.043,1.364 251.408,3.369 301.308,33.411 C 317.911,43.407 331.399,53.313 344.442,62.893 C 351.75,68.26 358.652,73.328 365.8,78.194 L 374.319,84.11 C 385.362,91.857 393.003,97.091 396.898,97.74 C 412.523,121.157 423.346,146.98 429.08,174.503 L 429.122,174.535 C 427.759,174.861 426.069,174.148 424.094,172.375 C 413.552,162.912 387.657,145.016 365.118,145.016 C 328.751,145.016 301.299,176.895 301.082,219.25 L 213.847,219.25 C 213.966,191.83 223.804,170.652 233.323,150.171 C 242.697,130.002 251.552,110.952 251.552,86.76 C 251.552,71.248 233.211,32.413 189.956,31.956 C 197.292,15.64 205.46,5.549 213.881,2.337 C 213.964,2.305 214.048,2.287 214.13,2.257 C 214.692,2.053 215.257,1.865 215.824,1.721 z M 212.87,219.751 C 212.87,247.633 222.82,269.041 232.442,289.745 C 241.769,309.813 250.581,328.768 250.581,352.744 C 250.581,368.072 232.32,406.598 189.199,406.6 L 189.194,406.6 C 144.986,406.6 104.724,368.179 104.724,325.995 C 104.724,307.621 107.922,295.726 111.307,283.132 C 115.345,268.113 119.921,251.089 119.921,219.751 C 119.921,188.415 115.345,171.391 111.307,156.372 C 107.922,143.778 104.724,131.882 104.724,113.51 C 104.724,71.325 144.986,32.907 189.194,32.907 C 232.319,32.907 250.581,71.433 250.581,86.761 C 250.581,110.738 241.769,129.694 232.441,149.763 C 222.819,170.466 212.87,191.872 212.87,219.751 z M 214.043,1.3 L 213.415,1.488 C 206.387,4.225 199.576,11.521 193.294,23.013 C 193.245,23.101 193.196,23.191 193.148,23.281 C 192.697,24.11 192.249,24.956 191.805,25.829 C 191.741,25.954 191.678,26.084 191.614,26.211 C 190.691,28.036 189.78,29.935 188.884,31.945 C 144.29,32.125 103.754,70.918 103.754,113.51 C 103.754,132.011 106.967,143.967 110.371,156.624 C 114.371,171.504 118.9,188.366 118.949,219.251 L 51.681,219.251 C 51.618,200.71 48.071,182.804 41.666,168.783 C 35.998,156.375 28.704,148.667 22.627,148.667 C 17.408,148.667 13.061,153.534 9.906,158.721 C 35.877,69.58 117.223,3.796 214.043,1.3 z M 7.238,270.73 C 7.119,270.237 6.991,269.746 6.876,269.251 C 6.405,267.219 5.963,265.177 5.551,263.129 C 5.439,262.578 5.34,262.024 5.233,261.472 C 4.914,259.825 4.611,258.172 4.33,256.519 C 4.228,255.923 4.129,255.331 4.033,254.735 C 3.739,252.905 3.464,251.07 3.216,249.23 C 3.171,248.901 3.119,248.571 3.076,248.237 C 2.784,246 2.524,243.759 2.301,241.514 C 2.274,241.236 2.254,240.957 2.228,240.68 C 2.045,238.781 1.892,236.878 1.759,234.972 C 1.716,234.357 1.678,233.743 1.642,233.125 C 1.542,231.481 1.462,229.835 1.399,228.186 C 1.375,227.574 1.346,226.96 1.328,226.348 C 1.263,224.152 1.22,221.955 1.22,219.756 L 1.22,219.735 C 1.22,217.546 1.263,215.36 1.328,213.173 C 1.347,212.537 1.376,211.904 1.401,211.271 C 1.463,209.653 1.541,208.036 1.64,206.422 C 1.679,205.773 1.718,205.127 1.763,204.478 C 1.891,202.639 2.041,200.803 2.216,198.97 C 2.248,198.623 2.274,198.276 2.308,197.93 C 2.527,195.727 2.782,193.527 3.067,191.333 C 3.126,190.881 3.195,190.436 3.256,189.987 C 3.489,188.284 3.742,186.581 4.015,184.884 C 4.126,184.193 4.241,183.502 4.359,182.812 C 4.617,181.302 4.894,179.796 5.184,178.294 C 5.316,177.606 5.441,176.916 5.58,176.232 C 5.978,174.267 6.402,172.308 6.853,170.355 C 6.978,169.819 7.116,169.289 7.244,168.754 C 13.113,169.635 19.704,179.569 19.704,219.739 C 19.704,259.93 13.109,269.855 7.238,270.73 z M 8.374,275.271 C 8.169,274.49 7.979,273.706 7.784,272.923 C 8.082,272.923 8.259,272.923 8.259,272.923 C 9.726,272.923 11.068,273.749 11.728,275.06 C 15.381,282.314 19.354,286.474 22.628,286.474 C 30.163,286.474 41.912,261.192 41.931,219.742 C 41.912,178.294 30.163,153.012 22.628,153.012 C 19.354,153.012 15.38,157.173 11.728,164.425 C 11.068,165.736 9.726,166.562 8.259,166.562 C 8.259,166.562 8.084,166.562 7.789,166.562 C 7.97,165.842 8.144,165.12 8.332,164.401 C 8.48,163.834 8.639,163.27 8.792,162.704 C 11.813,156.761 16.679,149.638 22.628,149.638 C 28.319,149.638 35.276,157.129 40.783,169.186 C 47.188,183.21 50.716,201.168 50.716,219.751 C 50.716,260.429 33.939,289.87 22.628,289.87 C 16.69,289.87 11.83,282.771 8.774,276.743 C 8.641,276.253 8.503,275.762 8.374,275.271 z M 9.903,280.784 C 13.058,285.972 17.407,290.843 22.628,290.843 C 34.282,290.843 51.54,261.231 51.681,220.252 L 118.95,220.252 C 118.901,251.139 114.372,268.001 110.372,282.881 C 106.968,295.54 103.755,307.495 103.755,325.996 C 103.755,368.592 144.291,407.383 188.886,407.565 C 189.782,409.57 190.694,411.469 191.615,413.294 C 191.678,413.423 191.741,413.553 191.806,413.676 C 192.25,414.55 192.699,415.396 193.149,416.226 C 193.197,416.313 193.245,416.404 193.295,416.492 C 199.577,427.986 206.388,435.278 213.416,438.016 L 214.088,438.217 C 117.242,435.74 35.873,369.942 9.903,280.784 z M 220.021,438.277 L 219.75,438.281 C 219.093,438.281 218.437,438.239 217.78,438.155 C 217.389,438.106 216.998,438.011 216.607,437.931 C 216.346,437.879 216.084,437.849 215.823,437.785 C 215.257,437.64 214.692,437.449 214.127,437.246 C 214.045,437.215 213.961,437.196 213.878,437.166 C 205.457,433.954 197.29,423.867 189.953,407.55 C 233.208,407.095 251.549,368.257 251.549,352.745 C 251.549,328.555 242.696,309.504 233.32,289.335 C 223.8,268.855 213.963,247.678 213.844,220.252 L 301.079,220.252 C 301.296,262.61 328.748,294.493 365.115,294.493 C 387.654,294.493 413.549,276.596 424.091,267.13 C 426.043,265.379 427.713,264.67 429.067,264.968 C 423.329,292.489 412.502,318.314 396.87,341.727 C 396.87,341.727 396.874,341.745 396.874,341.747 C 392.971,342.415 385.334,347.645 374.313,355.378 L 365.798,361.293 C 358.646,366.159 351.743,371.231 344.436,376.595 C 331.393,386.176 317.907,396.083 301.306,406.075 C 250.491,436.667 223.029,438.186 220.063,438.26 C 220.048,438.258 220.039,438.273 220.021,438.277 z M 358.997,388.058 C 358.579,388.405 358.158,388.746 357.737,389.088 C 356.845,389.816 355.95,390.539 355.049,391.253 C 324.875,414.996 288.786,430.528 250.462,435.982 C 283.735,426.961 304.643,416.046 330.994,401.273 C 350.482,390.346 359.88,385.184 363.748,383.992 C 362.183,385.371 360.601,386.727 358.997,388.058 z M 398.563,345.243 C 396.738,347.834 394.857,350.382 392.922,352.889 C 392.676,349.784 370.108,363.992 352.446,376.136 C 350.659,377.444 348.858,378.769 347.026,380.112 C 333.904,389.752 320.335,399.718 303.559,409.817 C 280.579,423.651 262.218,431.632 248.608,436.255 C 242.374,437.09 236.084,437.654 229.751,437.945 C 242.229,435.477 266.382,428.231 301.807,406.908 C 318.445,396.887 331.951,386.97 345.012,377.375 C 352.314,372.015 359.208,366.95 366.346,362.092 L 374.87,356.172 C 384.849,349.171 396.157,341.236 398.405,342.822 C 398.678,343.015 398.778,343.403 398.778,343.857 C 398.779,344.291 398.68,344.782 398.563,345.243 z M 399.704,343.6 C 399.646,342.897 399.427,342.355 398.964,342.031 C 398.714,341.852 398.392,341.763 398.039,341.717 C 413.494,318.419 424.233,292.762 429.968,265.429 L 429.942,265.303 C 431.253,266.118 432.073,267.974 432.558,269.557 C 426.255,296.484 414.957,321.506 399.704,343.6 z M 432.937,267.805 C 432.066,265.74 430.924,264.45 429.5,264.044 C 427.775,263.555 425.74,264.351 423.444,266.407 C 412.996,275.784 387.36,293.522 365.117,293.522 C 329.159,293.522 302.042,261.806 302.042,219.751 C 302.042,177.699 329.159,145.987 365.117,145.987 C 387.36,145.987 412.996,163.721 423.444,173.097 C 425.74,175.156 427.775,175.95 429.5,175.46 C 430.924,175.056 432.065,173.768 432.937,171.7 C 433.958,176.244 434.814,180.827 435.546,185.437 C 431.917,184.819 424.089,178.24 421.173,175.626 C 413.043,168.327 387.118,149.385 365.117,149.385 C 338.451,149.385 312.279,179.726 312.206,219.74 C 312.279,259.756 338.451,290.097 365.117,290.097 C 387.118,290.097 413.043,271.154 421.173,263.856 C 424.089,261.242 431.921,254.659 435.55,254.044 C 434.816,258.664 433.957,263.255 432.937,267.805 z M 438.284,219.756 C 438.284,221.739 438.258,223.726 438.201,225.709 C 438.193,225.987 438.177,226.263 438.169,226.544 C 438.113,228.296 438.045,230.048 437.949,231.797 C 437.941,231.933 437.929,232.07 437.924,232.207 C 437.799,234.331 437.644,236.452 437.46,238.568 C 435.596,239.191 433.183,241.046 429.587,245.764 C 421.32,256.614 409.698,272.889 394.196,272.889 C 378.702,272.889 351.059,259.442 351.059,219.741 C 351.059,179.876 378.702,166.595 394.196,166.595 C 409.698,166.595 421.32,182.867 429.587,193.719 C 433.183,198.437 435.596,200.293 437.456,200.912 C 437.64,203.011 437.795,205.113 437.916,207.219 C 437.926,207.392 437.937,207.563 437.949,207.733 C 438.045,209.447 438.113,211.163 438.166,212.88 C 438.173,213.191 438.193,213.498 438.201,213.809 C 438.254,215.776 438.284,217.742 438.284,219.707 L 438.284,219.756 L 438.284,219.756 z M 186.777,39.664 C 144.346,39.664 108.122,73.103 108.122,113.51 C 108.122,131.434 111.119,142.582 114.589,155.489 C 120.735,179.969 130.594,195.847 130.594,219.751 C 130.594,243.655 120.735,259.536 114.589,284.016 C 111.118,296.924 108.122,308.071 108.122,325.995 C 108.122,366.402 144.346,399.843 186.777,399.843 C 227.515,399.843 247.182,367.104 247.182,352.744 C 247.182,329.516 238.527,310.893 229.36,291.175 C 219.663,267.404 201.318,244.238 201.318,219.751 C 201.318,195.268 219.664,172.101 229.36,148.331 C 238.527,128.613 247.182,109.987 247.182,86.761 C 247.182,72.401 227.515,39.664 186.777,39.664 z M 184.404,219.751 C 184.404,251.774 224.64,282.616 224.64,321.712 C 224.64,361.195 197.684,375.108 179.724,375.108 C 162.775,375.108 117.436,358.491 117.436,307.098 C 117.436,269.378 144.129,255.737 144.129,219.75 C 144.129,183.768 117.436,170.124 117.436,132.406 C 117.436,81.013 162.775,64.394 179.724,64.394 C 197.684,64.394 224.64,78.309 224.64,117.792 C 224.641,156.889 184.404,187.729 184.404,219.751 z"
     id="path2599"
     style="stroke:#000000;stroke-width:0.5" /></g><g
   inkscape:groupmode="layer"
   id="layer3"
   inkscape:label="Reflet final"
   style="opacity:1;display:inline"
   sodipodi:insensitive="true"><circle
     cx="219.752"
     cy="219.748"
     r="219.502"
     id="circle2727"
     sodipodi:cx="219.752"
     sodipodi:cy="219.748"
     sodipodi:rx="219.502"
     sodipodi:ry="219.502"
     style="opacity:1;fill:url(#radialGradient3505);fill-opacity:1;display:inline" /></g></svg>